# xmcd
#
# Track frame offsets:
#	150
#	17308
#	40328
#	57485
#
# Disc length: 1071 seconds
#
# Revision: 1
# Processed by: cddbd v1.5PL3 Copyright (c) Steve Scherf et al.
# Submitted via: CDex 1.50Beta5
#
DISCID=29042d04
DTITLE=Ace File - WHITE STATION
DYEAR=2001
DGENRE=Anime
TTITLE0=WHITE STATION
TTITLE1=ガラスのペンギン
TTITLE2=WHITE STATION (オリジナル・カラオケ)
TTITLE3=ガラスのペンギン (オリジナル・カラオケ)
EXTD=あぃまぃみぃ！ストロベリー・エッグ　エンディングテーマ
EXTT0=
EXTT1=
EXTT2=
EXTT3=
PLAYORDER=
